<svg width="17" height="14" viewBox="0 0 17 14" fill="none" xmlns="http://www.w3.org/2000/svg">
<path d="M16.6377 7.00439C16.6377 6.73193 16.5234 6.46826 16.3213 6.2749L10.5469 0.500488C10.3184 0.280762 10.0811 0.184082 9.83496 0.184082C9.27246 0.184082 8.86816 0.57959 8.86816 1.11572C8.86816 1.39697 8.98242 1.63428 9.1582 1.81006L11.1357 3.81396L13.6846 6.14307L11.6455 6.02002H0.993164C0.404297 6.02002 0 6.42432 0 7.00439C0 7.57568 0.404297 7.97998 0.993164 7.97998H11.6455L13.6846 7.85693L11.1357 10.186L9.1582 12.1899C8.98242 12.3657 8.86816 12.603 8.86816 12.8843C8.86816 13.4204 9.27246 13.8159 9.83496 13.8159C10.0811 13.8159 10.3184 13.7192 10.5293 13.5171L16.3213 7.7251C16.5234 7.53174 16.6377 7.26807 16.6377 7.00439Z" fill="white"/>
</svg>
