<svg width="9" height="11" viewBox="0 0 9 11" fill="none" xmlns="http://www.w3.org/2000/svg">
<path d="M4.4971 11C4.67698 11 4.85106 10.9245 4.97872 10.7908L8.7911 6.97306C8.93617 6.82198 9 6.66508 9 6.50238C9 6.13048 8.73888 5.86318 8.38491 5.86318C8.19923 5.86318 8.04255 5.93872 7.9265 6.05494L6.60348 7.36239L5.06576 9.04754L5.147 7.69942L5.147 0.65663C5.147 0.267301 4.88008 0 4.4971 0C4.11992 0 3.853 0.267301 3.853 0.65663L3.853 7.69942L3.93424 9.04754L2.39652 7.36239L1.0735 6.05494C0.957447 5.93872 0.800774 5.86318 0.615088 5.86318C0.261122 5.86318 0 6.13048 0 6.50238C0 6.66508 0.0638304 6.82198 0.197292 6.96144L4.02128 10.7908C4.14894 10.9245 4.32302 11 4.4971 11Z" fill="#207EFC"/>
</svg>
