<svg width="17" height="14" viewBox="0 0 17 14" fill="none" xmlns="http://www.w3.org/2000/svg">
<path d="M0 6.99561C0 7.26807 0.114258 7.53174 0.316406 7.7251L6.09082 13.4995C6.31934 13.7192 6.55664 13.8159 6.80273 13.8159C7.36523 13.8159 7.76953 13.4204 7.76953 12.8843C7.76953 12.603 7.65527 12.3657 7.47949 12.1899L5.50195 10.186L2.95312 7.85693L4.99219 7.97998L15.6445 7.97998C16.2334 7.97998 16.6377 7.57568 16.6377 6.99561C16.6377 6.42432 16.2334 6.02002 15.6445 6.02002L4.99219 6.02002L2.95313 6.14307L5.50195 3.81396L7.47949 1.81006C7.65527 1.63428 7.76953 1.39697 7.76953 1.11572C7.76953 0.57959 7.36523 0.184082 6.80273 0.184082C6.55664 0.184082 6.31934 0.280762 6.1084 0.48291L0.316406 6.2749C0.114258 6.46826 0 6.73193 0 6.99561Z" fill="white"/>
</svg>
